HIERARCHY
ROOT Hips
{
  OFFSET 57.8838 95.319 338.509
  CHANNELS 6 Xposition Yposition Zposition Zrotation Xrotation Yrotation
  JOINT LeftUpLeg
  {
    OFFSET 8.64259 1.95398 -2.38835
    CHANNELS 3 Zrotation Xrotation Yrotation
    JOINT LeftLeg
    {
      OFFSET 43.7702 0 0
      CHANNELS 3 Zrotation Xrotation Yrotation
      JOINT LeftFoot
      {
        OFFSET 40.6238 0 0
        CHANNELS 3 Zrotation Xrotation Yrotation
        JOINT LeftToeBase
        {
          OFFSET 12.7242 0 0
          CHANNELS 3 Zrotation Xrotation Yrotation
          End Site
          {
            OFFSET 0 0 0
          }
        }
      }
    }
  }
  JOINT RightUpLeg
  {
    OFFSET -8.2249 1.95398 -2.59336
    CHANNELS 3 Zrotation Xrotation Yrotation
    JOINT RightLeg
    {
      OFFSET 43.5653 0 0
      CHANNELS 3 Zrotation Xrotation Yrotation
      JOINT RightFoot
      {
        OFFSET 40.6238 0 0
        CHANNELS 3 Zrotation Xrotation Yrotation
        JOINT RightToeBase
        {
          OFFSET 12.7242 0 0
          CHANNELS 3 Zrotation Xrotation Yrotation
          End Site
          {
            OFFSET 0 0 0
          }
        }
      }
    }
  }
  JOINT Spine
  {
    OFFSET 0.165834 0.87714 6.61349
    CHANNELS 3 Zrotation Xrotation Yrotation
    JOINT Spine1
    {
      OFFSET 7.38963 1.71661e-005 0
      CHANNELS 3 Zrotation Xrotation Yrotation
      JOINT Spine2
      {
        OFFSET 11.9445 1.14441e-005 0
        CHANNELS 3 Zrotation Xrotation Yrotation
        JOINT Spine3
        {
          OFFSET 14.7254 4.19617e-005 0
          CHANNELS 3 Zrotation Xrotation Yrotation
          JOINT Spine4
          {
            OFFSET 10.9679 0 0
            CHANNELS 3 Zrotation Xrotation Yrotation
            JOINT RightShoulder
            {
              OFFSET 2.46616 -1.6653 3.69651
              CHANNELS 3 Zrotation Xrotation Yrotation
              JOINT RightArm
              {
                OFFSET 13.0012 0 0
                CHANNELS 3 Zrotation Xrotation Yrotation
                JOINT RightForeArm
                {
                  OFFSET 28.7848 1.62311e-005 0
                  CHANNELS 3 Zrotation Xrotation Yrotation
                  JOINT RightHand
                  {
                    OFFSET 26.5688 1.62095e-005 0
                    CHANNELS 3 Zrotation Xrotation Yrotation
                    End Site
                    {
                      OFFSET 0 0 0
                    }
                  }
                }
              }
            }
            JOINT LeftShoulder
            {
              OFFSET 2.38034 -1.29275 -3.7523
              CHANNELS 3 Zrotation Xrotation Yrotation
              JOINT LeftArm
              {
                OFFSET 16.3182 6.07031e-005 0
                CHANNELS 3 Zrotation Xrotation Yrotation
                JOINT LeftForeArm
                {
                  OFFSET 27.0901 0 0
                  CHANNELS 3 Zrotation Xrotation Yrotation
                  JOINT LeftHand
                  {
                    OFFSET 24.5451 1.51738e-005 0
                    CHANNELS 3 Zrotation Xrotation Yrotation
                    End Site
                    {
                      OFFSET 0 0 0
                    }
                  }
                }
              }
            }
            JOINT Neck
            {
              OFFSET 5.0226 -0.0266342 0
              CHANNELS 3 Zrotation Xrotation Yrotation
              JOINT Head
              {
                OFFSET 6.69364 2.86102e-005 0
                CHANNELS 3 Zrotation Xrotation Yrotation
                End Site
                {
                  OFFSET 0 0 0
                }
              }
            }
          }
        }
      }
    }
  }
}
MOTION
Frames:	6
Frame Time:	0.0416667
-242.644 91.3477 265.469 -99.3552 -59.8091 -96.0637 -179.489 -9.65597 88.2928 -32.3255 21.9867 5.21764 59.3064 4.16236 0.827257 52.5272 10.8454 6.47129 173.855 19.1208 92.5254 -23.5358 -7.45576 2.23075 66.3115 7.17122 13.4835 33.14 -6.36087 -7.55258 -2.7297 8.24509 -89.9815 10.4051 -5.42935 0.511722 -1.25472 -5.40157 0.750881 -23.8788 -5.3314 -1.14849 -3.86621 -5.3314 -1.14849 81.9125 -57.6446 -110.423 22.4927 -0.896515 -12.4396 4.5205 -11.326 -4.40266 -13.2513 -0.578281 -0.0960225 -77.4365 -39.8224 97.7241 -40.9299 -9.02163 -27.9628 18.8176 53.1117 -27.5135 -5.80265 0.149216 -12.3763 17.9362 3.00469 -26.5485 -17.8869 7.17245 26.6621 
-236.706 91.2441 258.044 -102.548 -58.127 -100.735 -179.793 -10.9634 84.8762 -24.152 24.6348 3.46572 60.8884 10.0111 12.1984 51.241 10.2349 6.57431 173.679 21.4724 90.4733 -20.6498 3.23018 1.61254 64.3197 10.0403 20.6856 36.0407 -10.7695 -7.64371 -2.31384 8.26369 -89.7692 10.3706 -4.50382 0.852162 -1.29305 -4.46195 1.04991 -23.8904 -4.55132 -0.543667 -3.87774 -4.55131 -0.543675 87.1928 -57.2692 -103.19 24.1168 -1.82594 -6.98968 2.90936 -12.6396 -8.50703 -11.6124 -0.595012 0.777135 -79.25 -44.7735 94.784 -36.6228 -9.64176 -29.6315 17.9041 58.3731 -25.9921 -6.31531 0.186942 -12.4079 16.5272 2.08158 -23.2301 -16.6706 5.55484 24.3182 
-231.474 90.9936 251.539 -104.984 -54.7618 -103.412 -179.474 -7.71595 83.1518 -24.6155 23.0549 2.36833 63.6441 11.4989 15.0281 46.4127 7.74975 5.01551 170.378 23.1211 90.0306 -27.8909 0.891979 3.48166 63.1529 6.61383 20.5268 34.965 -9.14505 -7.73965 -1.59682 8.42404 -89.6846 10.039 -3.03861 0.877518 -1.62885 -2.99705 1.0105 -24.1924 -3.16172 -0.0771659 -4.17971 -3.16174 -0.0771842 91.8493 -55.8092 -96.8987 27.5973 -3.27308 -2.51712 0.820388 -14.6477 -12.8067 -10.1028 -0.498972 0.603805 -80.8246 -48.9837 92.4972 -32.7664 -11.3661 -29.0493 14.2194 61.4109 -21.9096 -4.5519 0.0557888 -12.2739 15.5687 1.02174 -17.1992 -15.0311 3.29314 21.5052 
-227.404 91.4116 246.509 -105.568 -53.9236 -103.054 -179.164 -2.6495 83.4738 -27.4172 20.8835 2.06379 65.8581 10.0362 13.2567 40.58 5.08272 5.10703 168.317 22.7441 89.6856 -45.5416 -7.17888 2.80284 62.3108 4.70701 18.1061 35.3299 -9.61483 -7.11184 -1.06724 8.31151 -89.9945 10.254 -2.12377 0.193013 -1.41526 -2.11321 0.286332 -23.964 -2.08355 -0.454488 -3.9513 -2.08355 -0.454476 95.503 -52.8118 -91.9863 30.432 -3.0977 -0.685854 0.285291 -16.9877 -12.3813 -7.72613 -0.366951 0.371889 -81.942 -51.8151 91.0004 -32.7128 -15.2534 -23.789 5.72224 60.8986 -11.2023 0.328807 -0.24081 -10.738 14.7096 0.505906 -10.9073 -15.5748 1.13302 19.1748 
-223.894 91.7557 241.523 -104.492 -51.6639 -100.452 -179.074 2.10433 84.7865 -28.5205 17.246 2.06832 66.9501 7.85728 11.0024 34.8671 2.4695 3.98907 169.77 17.5594 89.6743 -60.067 -12.4574 0.296539 61.3631 3.31195 12.8079 33.9918 -7.6023 -7.15475 -0.484316 8.03052 -90.3122 10.81 -1.10828 -0.51863 -0.860565 -1.13006 -0.469348 -23.3976 -0.901188 -0.827756 -3.38498 -0.901204 -0.827759 97.2506 -51.0499 -89.533 30.9991 -2.70398 0.585629 -0.00581394 -16.4788 -13.1692 -7.08848 -0.345301 0.526909 -82.1174 -52.894 90.8228 -31.3406 -20.301 -14.5419 2.60938 64.0106 -5.94069 -0.185788 -0.199387 -10.03 14.5547 0.184498 -9.62586 -16.3516 0.46838 18.069 
-220.485 91.8792 236.273 -103.251 -48.7682 -99.977 -179.274 6.24904 84.8749 -27.7128 16.0794 1.21705 65.3221 4.90422 10.3201 31.517 1.00043 3.22461 170.574 7.90828 85.6837 -61.6146 -12.1886 -1.77398 60.4798 3.67747 11.9323 33.1746 -6.48729 -8.75859 -0.0556585 7.8565 -90.3034 11.1602 -0.251808 -0.580859 -0.510842 -0.277142 -0.569216 -23.045 -0.0656053 -0.629678 -3.03233 -0.0656005 -0.629687 97.3447 -50.6359 -89.4265 30.4088 -2.03722 -0.574064 -0.444204 -15.5664 -15.3323 -10.4046 -0.585393 1.34986 -81.8343 -53.532 91.2827 -28.1358 -25.9636 -8.30002 -0.723934 73.5925 0.760007 -2.27281 -0.0319794 -10.1152 14.8549 0.130683 -9.74873 -16.5616 0.4278 18.1782 
